<svg width="35" height="40" viewBox="0 0 35 40" fill="none" xmlns="http://www.w3.org/2000/svg">
<path d="M11.1381 9.4284L5.39412 18.9722L23.645 29.9567L29.3891 20.4129L11.1381 9.4284Z" fill="#FF5F00"/>
<path d="M14.8843 23.8584C13.1257 22.8021 11.6159 21.3835 10.4693 19.7102C9.32271 18.0369 8.5693 16.1527 8.26613 14.2003C5.95183 14.9993 3.9518 16.4279 2.49465 18.323C1.0375 20.218 0.182008 22.5029 0.0259747 24.9166C-0.130058 27.3302 0.419657 29.7753 1.61228 31.9722C2.80491 34.1691 4.59233 36.0293 6.77024 37.3401C8.94815 38.6509 11.4287 39.3594 13.9283 39.3847C16.4279 39.41 18.8458 38.7511 20.9056 37.4832C22.9653 36.2153 24.5838 34.3896 25.5761 32.2148C26.5685 30.04 26.8945 27.6038 26.517 25.1848C24.6498 25.8309 22.6322 26.0473 20.6168 25.8175C18.6014 25.5878 16.6411 24.9178 14.8843 23.8584Z" fill="#EB001B"/>
<path d="M28.0126 2.04554C30.1905 3.35624 31.9779 5.21633 33.1706 7.41318C34.3633 9.61004 34.913 12.055 34.757 14.4687C34.601 16.8823 33.7455 19.1672 32.2884 21.0622C30.8313 22.9572 28.8313 24.3858 26.517 25.1848C26.212 23.2328 25.4579 21.3493 24.3115 19.6763C23.165 18.0032 21.6562 16.5844 19.8988 15.5266C18.1414 14.4689 16.1813 13.8 14.1662 13.5702C12.1511 13.3405 10.1337 13.5559 8.26609 14.2003C7.88859 11.7813 8.21462 9.34513 9.20691 7.17037C10.1992 4.99561 11.8177 3.16996 13.8775 1.9021C15.9372 0.634252 18.3551 -0.0246545 20.8546 0.000710617C23.3542 0.0260755 25.8347 0.734681 28.0126 2.04554Z" fill="#F79E1B"/>
<path d="M34.5787 7.41496L34.2051 7.19007L34.2903 7.04849L34.2141 7.00268L33.9971 7.36325L34.0733 7.40907L34.1585 7.26742L34.5322 7.49231L34.5787 7.41496ZM35 6.71493L34.5495 6.44378L34.483 6.5543L34.7164 6.86793L34.3299 6.80859L34.2634 6.91918L34.7139 7.19033L34.7609 7.11229L34.421 6.90775L34.7858 6.96487L34.8345 6.88394L34.6125 6.58794L34.9531 6.79291L35 6.71493Z" fill="#F79E1B"/>
</svg>
