<svg width="76" height="29" viewBox="0 0 76 29" fill="none" xmlns="http://www.w3.org/2000/svg">
<path d="M0 24.696H13.462V28.3133H0V24.696Z" fill="#7E7F82"/>
<path d="M19.4123 22.6249C18.102 22.5081 17.034 22.2942 16.2083 21.9832C15.4006 21.6526 14.7993 21.3802 14.4044 21.1663L15.5622 17.8117C16.1904 18.1423 16.9353 18.4437 17.7968 18.7159C18.6763 18.9882 19.6007 19.1243 20.57 19.1243C21.665 19.1243 22.4098 18.9688 22.8048 18.6576C23.2176 18.327 23.424 17.87 23.424 17.2866C23.424 16.917 23.3432 16.606 23.1817 16.3531C23.0201 16.0809 22.7868 15.8378 22.4817 15.6238C22.1765 15.4099 21.7906 15.2058 21.3239 15.0113C20.8573 14.7973 20.3188 14.5737 19.7085 14.3403C19.1161 14.1069 18.5328 13.8542 17.9584 13.5819C17.402 13.2901 16.8904 12.9401 16.4238 12.5317C15.975 12.1233 15.607 11.6274 15.3199 11.044C15.0506 10.4412 14.916 9.72157 14.916 8.88533C14.916 8.24357 14.9968 7.63098 15.1583 7.04756C15.3378 6.44469 15.607 5.90017 15.966 5.41398C16.325 4.92781 16.7917 4.51941 17.3661 4.1888C17.9404 3.83875 18.6225 3.58594 19.4123 3.43035V0.279892H22.8048V3.31368C23.7381 3.41091 24.5368 3.55677 25.201 3.75124C25.883 3.94571 26.4216 4.14019 26.8165 4.33466L25.9818 7.83518C25.3895 7.56292 24.6984 7.32955 23.9087 7.13508C23.1368 6.9406 22.3201 6.84336 21.4586 6.84336C20.597 6.84336 19.9778 6.99895 19.6007 7.3101C19.2238 7.62126 19.0354 8.02965 19.0354 8.53528C19.0354 8.84644 19.0892 9.1187 19.1969 9.35208C19.3225 9.56599 19.511 9.76043 19.7623 9.93549C20.0136 10.1106 20.3188 10.2855 20.6778 10.4606C21.0547 10.6161 21.5035 10.7912 22.024 10.9857C22.8137 11.2968 23.5407 11.6371 24.2048 12.0067C24.8869 12.3761 25.4702 12.804 25.9549 13.2901C26.4575 13.7569 26.8434 14.3111 27.1126 14.9529C27.3998 15.5946 27.5434 16.3434 27.5434 17.1991C27.5434 17.7825 27.4627 18.3659 27.3011 18.9494C27.1396 19.5133 26.8703 20.0384 26.4934 20.5245C26.1164 21.0108 25.6228 21.4289 25.0126 21.7789C24.4202 22.1289 23.6843 22.3818 22.8048 22.5373V26.0962H19.4123V22.6249Z" fill="#7E7F82"/>
<path d="M42.7383 22.3915C42.0562 22.6054 41.1767 22.7999 40.0998 22.975C39.0228 23.1695 37.892 23.2666 36.7074 23.2666C35.5047 23.2666 34.4996 23.0916 33.6918 22.7416C32.902 22.3915 32.2738 21.9053 31.8071 21.283C31.3404 20.6412 31.0083 19.8828 30.8109 19.0077C30.6135 18.1325 30.5147 17.1699 30.5147 16.1197V7.57265H34.5264V15.5947C34.5264 16.9949 34.697 18.0061 35.038 18.6284C35.3791 19.2508 36.0163 19.562 36.9496 19.562C37.2368 19.562 37.542 19.5522 37.8651 19.5328C38.1882 19.4939 38.4753 19.4549 38.7266 19.4161V7.57265H42.7383V22.3915Z" fill="#7E7F82"/>
<path d="M49.9235 15.1279C49.9235 16.4698 50.2017 17.5492 50.7581 18.3659C51.3145 19.1827 52.1402 19.5911 53.2352 19.5911C53.5942 19.5911 53.9262 19.5814 54.2314 19.5619C54.5365 19.523 54.7878 19.4841 54.9853 19.4453V11.5399C54.7339 11.3649 54.4019 11.219 53.989 11.1024C53.5942 10.9857 53.1903 10.9273 52.7775 10.9273C50.8748 10.9273 49.9235 12.3275 49.9235 15.1279ZM58.997 22.4207C58.638 22.5373 58.2251 22.654 57.7584 22.7707C57.2918 22.8679 56.7981 22.9555 56.2776 23.0332C55.775 23.1111 55.2545 23.1694 54.716 23.2083C54.1955 23.2666 53.6929 23.2958 53.2082 23.2958C52.0415 23.2958 51.0005 23.1111 50.0851 22.7416C49.1696 22.372 48.3978 21.847 47.7696 21.1663C47.1413 20.4663 46.6567 19.63 46.3156 18.6576C45.9926 17.6658 45.8311 16.5574 45.8311 15.3321C45.8311 14.0875 45.9746 12.9693 46.2618 11.9775C46.549 10.9662 46.9618 10.1106 47.5003 9.41042C48.0388 8.71031 48.694 8.17551 49.4658 7.80601C50.2555 7.43651 51.153 7.25176 52.1582 7.25176C52.7147 7.25176 53.2082 7.3101 53.6391 7.42679C54.0877 7.54347 54.5365 7.70877 54.9853 7.9227V0.979999L58.997 0.279892V22.4207Z" fill="#7E7F82"/>
<path d="M76 15.2154C76 16.4212 75.8385 17.5297 75.5154 18.541C75.1923 19.5328 74.7255 20.3885 74.1153 21.108C73.505 21.8081 72.7691 22.3526 71.9075 22.7416C71.0639 23.1305 70.1126 23.325 69.0536 23.325C68.0125 23.325 67.0611 23.1305 66.1996 22.7416C65.3559 22.3526 64.629 21.8081 64.0187 21.108C63.4084 20.3885 62.0802 15.2154 62.5918 18.541C62.2507 17.5297 62.0802 16.4212 62.0802 15.2154C62.0802 14.0097 62.2507 12.9109 62.5918 11.9191C62.9507 10.9273 63.4354 10.0814 64.0456 9.38125C64.6739 8.68115 65.4098 8.13662 66.2534 7.74767C67.115 7.35873 68.0484 7.16426 69.0536 7.16426C70.0767 7.16426 71.01 7.35873 71.8536 7.74767C72.7152 8.13662 73.4512 8.68115 74.0614 9.38125C74.6717 10.0814 75.1474 10.9273 75.4884 11.9191C75.8294 12.9109 76 14.0097 76 15.2154ZM71.9075 15.2154C71.9075 13.8736 71.6562 12.8234 71.1536 12.065C70.669 11.2871 69.9689 10.8981 69.0536 10.8981C68.1381 10.8981 67.4291 11.2871 66.9266 12.065C66.424 12.8234 66.1726 13.8736 66.1726 15.2154C66.1726 16.5574 66.424 17.6269 66.9266 18.4243C67.4291 19.2022 68.1381 19.5911 69.0536 19.5911C69.9689 19.5911 70.669 19.2022 71.1536 18.4243C71.6562 17.6269 71.9075 16.5574 71.9075 15.2154Z" fill="#7E7F82"/>
</svg>
