<svg width="12" height="35" viewBox="0 0 12 35" fill="none" xmlns="http://www.w3.org/2000/svg">
<path d="M0.527338 9.84612C0.258239 10.6615 0.140222 11.5168 0.178828 12.372C0.285195 15.1402 1.79105 17.039 3.8417 16.9746C5.35002 16.934 6.14437 15.4942 6.60904 14.4121C7.08442 13.3007 7.39563 12.9235 7.86133 12.9085C8.56662 12.8886 8.91915 13.7414 8.95001 14.5445C8.99244 15.6489 8.85753 16.2606 8.49713 17.2058L8.34631 17.5567L10.7233 17.8567C10.9857 17.1737 11.186 15.9531 11.1571 14.6994C11.044 11.7567 9.54968 9.88786 7.36417 9.94875C6.16161 9.97182 5.27878 10.7653 4.58947 12.396C4.13904 13.3865 3.83565 14.0046 3.34049 14.0237C2.90298 14.0405 2.41601 13.5408 2.37446 12.4594C2.32916 11.741 2.43917 11.021 2.69738 10.3461L2.80713 10.082L0.509952 9.77891L0.527338 9.84612ZM6.64639e-06 2.6712L0.0831056 4.83391C0.108977 5.50724 0.316029 6.00324 1.01322 6.27247L10.8308 10.061L10.7178 7.11828L9.11365 6.59076L8.97862 3.00054C9.34476 2.89838 10.5439 2.59384 10.5439 2.59384L10.4443 -2.8491e-06L6.64639e-06 2.6712ZM0.618664 21.0837L0.511022 18.2823L11.1156 19.6292L11.2233 22.4321L0.615708 21.0838L0.618664 21.0837ZM6.69966 27.9817L8.15181 27.6342L0.864462 25.1693L0.750396 22.2006L11.4365 26.2099L11.5503 29.1714L2.73647 31.9359C2.59119 31.9806 2.46921 32.0784 2.39614 32.2089C1.96569 33.0979 1.65017 34.0355 1.45683 35L1.23373 34.9725L1.06028 30.4582C1.06044 29.8459 1.23955 29.3452 1.90412 29.1507L6.70411 27.9815L6.69966 27.9817ZM6.92619 5.86909L3.93595 4.86492C3.96607 4.87823 3.31812 4.65764 2.91656 4.53158L3.81822 4.30485L6.83375 3.54067L6.92322 5.86921L6.92619 5.86909Z" fill="white"/>
</svg>
